<svg version="1.2" baseProfile="tiny-ps" xmlns="http://www.w3.org/2000/svg" viewBox="0 0 512 512" width="512" height="512"><title>exit-icon-svg</title><style>tspan { white-space:pre }.shp0 { fill: #000000 } </style><g ><g ><path fill-rule="evenodd" class="shp0" d="M10.92 295.98L28.38 295.98C28.38 287.58 28.38 282.07 28.38 273.86C28.38 268.29 32.89 263.77 38.46 263.77L44.43 263.77C43.72 255.05 49.34 246.83 58.1 244.58C65.06 242.79 108.95 231.51 115.72 229.77L97.16 181.16C91.78 167.08 98.83 151.31 112.92 145.93L155.41 129.49C163.55 126.34 172.3 125.53 180.89 127.11C214.61 133.29 270.02 143.46 276.42 144.63C280.65 145.41 284.48 147.65 287.22 150.96L324.94 196.48L324.94 59.37C324.94 54.01 328.48 49.3 333.62 47.8L414.76 24.12L204.38 24.12L204.38 113.14L180.27 109.99L180.27 12.06C180.27 5.4 185.67 0 192.33 0C194.03 0 499.16 -0.02 500.09 0.05C506.47 0.58 511.16 5.95 511.16 12.06C511.16 15.02 511.22 452.85 511.06 454.13C510.44 459.01 506.96 462.89 502.48 464.2L340.37 511.51C332.65 513.76 324.94 507.95 324.94 499.94L324.94 250.25C322.15 249.16 319.57 247.39 317.52 244.91L263.28 179.44C256.68 178.24 210.26 169.75 202.8 168.38L243.57 275.14C243.57 275.14 242.11 271.47 269.28 364.46L300.89 424.56L300.89 481.49L300.89 481.49C291.59 483.76 281.62 479.51 276.98 470.69L230.55 382.42C229.88 381.16 229.35 379.84 228.95 378.47L203.26 290.54C201.39 291.25 202.31 290.9 197.47 292.75C191 302.91 159.16 352.91 152.72 363.03L184.89 453.64C188.83 464.73 183.03 476.92 171.93 480.86C160.89 484.78 148.65 479.02 144.7 467.9L109.05 367.49C106.91 361.46 107.55 354.58 111.16 348.91L142.45 299.77C137.89 287.83 133.44 276.19 128.86 264.19C111.49 268.66 100.06 271.6 100.06 271.6L100.32 295.98L117.78 295.98C120.05 295.98 122.13 296.74 123.82 298.01L97.11 339.96C90.78 349.9 89.41 361.97 93.35 373.07L97.79 385.56L10.91 385.56C5.34 385.56 0.83 381.05 0.83 375.48L0.83 306.07C0.83 300.5 5.35 295.98 10.92 295.98ZM359.3 316.97C359.3 323.63 364.7 329.03 371.36 329.03C378.02 329.03 383.41 323.63 383.41 316.97L383.41 247.37C383.41 240.72 378.02 235.32 371.36 235.32C364.7 235.32 359.3 240.72 359.3 247.37L359.3 316.97ZM80.15 295.98L80.15 283.94L48.55 283.94L48.55 295.98L80.15 295.98Z" /></g></g><g ><g ><path class="shp0" d="M196.2 325.77L204.38 353.8L204.38 440.57L242.31 440.57L255 464.69L202.59 464.69C203.17 459.13 202.51 453.48 200.59 448.06L180.27 390.84L180.27 350.78L196.2 325.77Z" /></g></g><g ><g ><path class="shp0" d="M95.09 50.63C115.93 42.68 139.28 53.12 147.24 73.97C155.27 94.99 144.54 118.24 123.91 126.12C103.25 134.01 79.77 123.79 71.75 102.79C63.8 81.94 74.24 58.59 95.09 50.63Z" /></g></g><g ></g><g ></g><g ></g><g ></g><g ></g><g ></g><g ></g><g ></g><g ></g><g ></g><g ></g><g ></g><g ></g><g ></g><g ></g></svg>